<svg width="1092" height="733" viewBox="0 0 1092 733" fill="none" xmlns="http://www.w3.org/2000/svg">
<ellipse cx="528.254" cy="628.756" rx="473.649" ry="78.6451" transform="rotate(0.0382146 528.254 628.756)" fill="url(#paint0_radial_2_133)"/>
<path d="M797.346 161.034C791.699 180.653 808.038 189.498 797.312 211.678C786.586 233.858 758.268 249.141 758.268 249.141C704.469 231.508 604.896 197.485 512.722 179.355C321.475 141.738 214.489 135.535 212.85 116.417C209.357 75.6927 302.38 26.4532 380.464 25.4837C458.549 24.5142 802.853 141.903 797.346 161.034Z" fill="url(#paint1_linear_2_133)" stroke="#3F7379" stroke-width="10" stroke-linecap="round" stroke-linejoin="round"/>
<path d="M1043.62 285.291C1033.23 270.999 885.392 188.381 798.875 162.714C775.9 191.117 767.094 210.386 756.738 249.141C827.189 271.4 982.226 348.589 1002.26 352.591C1027.89 357.71 1052.38 297.341 1043.62 285.291Z" fill="url(#paint2_linear_2_133)" stroke="#461111" stroke-width="10" stroke-linecap="round" stroke-linejoin="round"/>
<path d="M942.296 579.38C953.014 570.206 909.86 487.548 881.151 487.529C864.65 487.518 853.704 498.953 846.295 512.266C843.477 509.651 840.308 507.714 836.763 506.626C830.711 504.769 825.625 504.325 821.194 504.878L826.071 502.794C894.943 456.934 889.632 393.882 910.576 388.848C924.223 385.568 957.642 386.15 993.169 355.92C994.912 354.437 996.52 352.729 998.003 350.824L925.046 319.58L921.956 323.095C926.089 280.847 944.798 242.167 948.28 189.89C878.908 181.138 830.081 229.725 826.219 281.809C822.356 333.892 855.868 352.498 857.322 367.282C859.228 386.663 837.335 414.845 812.02 436.544L813.859 433.163C828.416 402.569 831.18 355.9 821.57 343.653C813.161 332.936 769.543 345.148 758.838 335.96C748.133 326.772 783.392 246.468 758.908 231.143C734.435 215.825 664.769 280.046 650.238 272.385C635.706 264.725 636.416 175.804 601.339 172.126C564.618 168.276 519.423 250.11 504.89 243.98C490.358 237.85 451.05 173.374 418.479 179.655C385.907 185.937 379.407 258.433 364.101 264.544C348.795 270.654 292.769 222.127 262.358 243.818C233.424 264.456 275.298 344.053 269.172 350.935C264.272 356.44 230.168 356.798 223.71 354.627C229.703 338.63 234.684 319.877 230.205 301.411C221.23 264.405 173.261 217.373 106.248 237.329C118.214 288.337 129.195 317.344 140.167 358.351L42.1947 317.286C39.8458 340.618 43.1448 392.086 75.132 411.308C115.116 435.334 148.126 420.356 162.125 421.366C176.892 422.43 189.979 453.897 214.446 481.985L214.429 507.073C203.826 499.828 190.303 493.66 179.622 497.497C137.228 512.727 106.735 585.318 117.811 594.824C126.672 602.43 170.174 586.172 189.181 575.102C179.556 602.667 176.401 630.512 183.488 636.032C193.44 643.784 230.585 624.933 254.795 598.213C465.764 700.623 712.718 657.265 795.402 575.456L798.977 571.635C817.71 594.752 845.301 625.733 855.046 625.227C864.009 624.761 869.218 584.15 863.108 550.383L865.041 551.785C887.412 568.626 931.579 588.554 942.296 579.38Z" fill="url(#paint3_radial_2_133)"/>
<path d="M1005.39 224.928L985.707 247.322L1010.43 261.977C1009.46 245.942 1007.37 232.232 1005.39 224.928Z" fill="#C55F5F"/>
<path d="M313.758 473.634C276.165 464.009 214.792 422.568 212.812 392.567C211.834 377.744 240.848 339.586 231.872 302.58C222.897 265.574 174.928 218.542 107.915 238.497C119.881 289.505 130.862 318.512 141.834 359.52L43.8616 318.454C41.5127 341.786 44.8117 393.255 76.7989 412.476C116.783 436.503 149.793 421.525 163.792 422.534C188.096 424.287 209.734 510.565 280.725 523.612" stroke="url(#paint4_linear_2_133)" stroke-width="10" stroke-linecap="round" stroke-linejoin="round"/>
<path d="M520.158 560.577C516.777 555.014 520.908 547.526 527.418 547.518C545.02 547.498 558.733 546.947 576.134 545.604C582.272 545.13 586.757 551.458 584.018 556.972C578.889 567.296 575.047 572.591 567.918 575.837C558.536 580.109 550.375 580.571 537.8 577.204C537.282 577.065 536.77 576.867 536.296 576.618C527.666 572.075 524.281 567.36 520.158 560.577Z" fill="url(#paint5_linear_2_133)"/>
<ellipse cx="468.533" cy="475.391" rx="63.9298" ry="61.364" transform="rotate(0.0382146 468.533 475.391)" fill="#491010"/>
<ellipse cx="633.689" cy="472.508" rx="63.9298" ry="61.364" transform="rotate(0.0382146 633.689 472.508)" fill="#491010"/>
<circle cx="449.478" cy="466.217" r="35.4608" transform="rotate(0.0382146 449.478 466.217)" fill="#F9E3D3"/>
<circle cx="617.322" cy="463.977" r="33.1089" transform="rotate(0.0382146 617.322 463.977)" fill="#F9E3D3"/>
<path d="M276.251 547.017C267.814 535.929 247.932 514.384 235.898 516.909C198.032 524.855 170.913 626.109 185.155 637.201C196.548 646.074 244.538 619.033 266.725 586.592" stroke="#531212" stroke-width="10" stroke-linecap="round" stroke-linejoin="round"/>
<path d="M228.773 518.488C219.543 509.51 197.125 492.977 181.289 498.666C138.895 513.896 108.402 586.486 119.478 595.993C128.339 603.598 166.979 589.692 185.985 578.622" stroke="#531212" stroke-width="10" stroke-linecap="round" stroke-linejoin="round"/>
<path d="M216.112 484.919L216.098 505.584" stroke="#531212" stroke-width="10" stroke-linecap="round" stroke-linejoin="round"/>
<path d="M260.726 602.28C471.696 704.69 714.385 658.434 797.069 576.625" stroke="#531212" stroke-width="10" stroke-linecap="round" stroke-linejoin="round"/>
<path d="M790.959 560.554C808.031 582.753 845.083 627 856.713 626.395C871.25 625.64 875.911 519.296 838.43 507.795C816.278 500.997 807.058 513.129 795.574 523.833" stroke="#531212" stroke-width="10" stroke-linecap="round" stroke-linejoin="round"/>
<path d="M850.671 508.568C855.267 500.155 866.751 488.687 882.818 488.697C911.526 488.716 954.681 571.375 943.963 580.548C933.246 589.722 889.079 569.795 866.708 552.954" stroke="#531212" stroke-width="10" stroke-linecap="round" stroke-linejoin="round"/>
<path d="M227.991 356.665C240.232 357.439 265.939 357.609 270.839 352.104C276.965 345.222 235.091 265.625 264.025 244.987C294.436 223.295 350.462 271.823 365.768 265.712C381.073 259.602 387.574 187.105 420.145 180.824C452.717 174.542 492.025 239.018 506.557 245.149C521.09 251.279 566.285 169.445 603.006 173.295C638.083 176.972 637.373 265.893 651.905 273.554C666.436 281.214 736.102 216.994 760.575 232.312C785.059 247.637 749.8 327.94 760.505 337.128C771.21 346.317 814.828 334.104 823.237 344.821C832.847 357.069 830.083 403.737 815.526 434.331" stroke="url(#paint6_radial_2_133)" stroke-width="10" stroke-linecap="round" stroke-linejoin="round"/>
<path d="M772.626 464.905C808.145 449.274 861.932 398.373 858.989 368.451C857.535 353.667 824.023 335.061 827.885 282.977C831.747 230.894 880.575 182.307 949.947 191.059C946.465 243.336 927.756 282.015 923.622 324.263L926.712 320.749L999.67 351.992C998.187 353.898 996.579 355.606 994.836 357.089C959.309 387.318 925.889 386.736 912.242 390.017C891.299 395.051 896.609 458.103 827.738 503.962M1009.92 226.099L990.236 248.492L1014.96 263.148C1013.99 247.113 1011.9 233.402 1009.92 226.099Z" stroke="url(#paint7_linear_2_133)" stroke-width="10" stroke-linecap="round" stroke-linejoin="round"/>
<path d="M954.6 230.791C1001.43 255.491 1038.6 278.38 1043.62 285.291C1052.38 297.341 1027.89 357.71 1002.26 352.591C994.612 351.063 967.286 338.868 932.501 323.134" stroke="#461111" stroke-width="10" stroke-linecap="square" stroke-linejoin="round"/>
<defs>
<radialGradient id="paint0_radial_2_133" cx="0" cy="0" r="1" gradientUnits="userSpaceOnUse" gradientTransform="translate(528.254 628.756) rotate(90) scale(78.6451 473.649)">
<stop stop-opacity="0.73"/>
<stop offset="0.62" stop-opacity="0.12045"/>
<stop offset="1" stop-opacity="0"/>
</radialGradient>
<linearGradient id="paint1_linear_2_133" x1="487.886" y1="-5.67071" x2="673.331" y2="302.96" gradientUnits="userSpaceOnUse">
<stop stop-color="#849A9C"/>
<stop offset="0.296786" stop-color="#B9C2B7"/>
<stop offset="0.497097" stop-color="#AEBBB2"/>
<stop offset="1" stop-color="#7F999C"/>
</linearGradient>
<linearGradient id="paint2_linear_2_133" x1="951.49" y1="212.005" x2="901.031" y2="352.829" gradientUnits="userSpaceOnUse">
<stop stop-color="#BF565A"/>
<stop offset="1" stop-color="#431719"/>
</linearGradient>
<radialGradient id="paint3_radial_2_133" cx="0" cy="0" r="1" gradientUnits="userSpaceOnUse" gradientTransform="translate(519.856 255.356) rotate(90.0382) scale(402.712 861.64)">
<stop stop-color="#FFA857"/>
<stop offset="1" stop-color="#D62115"/>
</radialGradient>
<linearGradient id="paint4_linear_2_133" x1="89.6287" y1="259.429" x2="256.959" y2="482.013" gradientUnits="userSpaceOnUse">
<stop stop-color="#5E2014"/>
<stop offset="1" stop-color="#531212"/>
</linearGradient>
<linearGradient id="paint5_linear_2_133" x1="550.895" y1="544.423" x2="550.871" y2="579.425" gradientUnits="userSpaceOnUse">
<stop offset="0.46" stop-color="#491010"/>
<stop offset="1" stop-color="#911212"/>
</linearGradient>
<radialGradient id="paint6_radial_2_133" cx="0" cy="0" r="1" gradientUnits="userSpaceOnUse" gradientTransform="translate(567.116 207.257) rotate(99.6879) scale(230.165 281.514)">
<stop stop-color="#9A5228"/>
<stop offset="1" stop-color="#5D1F14"/>
</radialGradient>
<linearGradient id="paint7_linear_2_133" x1="867.233" y1="199.464" x2="915.39" y2="489.403" gradientUnits="userSpaceOnUse">
<stop stop-color="#672D15"/>
<stop offset="1" stop-color="#531212"/>
</linearGradient>
</defs>
</svg>
